<?xml version="1.0" encoding="UTF-8"?>
<svg width="224px" height="54px" viewBox="0 0 224 54" version="1.1" xmlns="http://www.w3.org/2000/svg" xmlns:xlink="http://www.w3.org/1999/xlink" xmlns:sketch="http://www.bohemiancoding.com/sketch/ns">
    <!-- Generator: Sketch 3.2.2 (9983) - http://www.bohemiancoding.com/sketch -->
    <title>logo+outlines</title>
    <desc>Created with Sketch.</desc>
    <defs></defs>
    <g id="logo-+-name" stroke="none" stroke-width="1" fill="none" fill-rule="evenodd" sketch:type="MSPage">
        <g id="logo+outlines" sketch:type="MSLayerGroup" transform="translate(0.000000, -5.000000)">
            <rect id="Rectangle-2" sketch:type="MSShapeGroup" x="0" y="0" width="64" height="64"></rect>
            <path d="M93.52,35.816 C93.52,32.504 91.396,31.316 88.3,31.028 L85.456,30.776 C83.224,30.596 82.36,29.696 82.36,28.184 C82.36,26.384 83.728,25.268 86.32,25.268 C88.156,25.268 89.776,25.7 91.036,26.672 L92.728,24.98 C91.144,23.684 88.876,23.072 86.356,23.072 C82.576,23.072 79.84,25.016 79.84,28.256 C79.84,31.172 81.676,32.72 85.132,33.008 L88.048,33.26 C90.1,33.44 91,34.304 91,35.852 C91,37.94 89.2,38.984 86.284,38.984 C84.088,38.984 82.18,38.408 80.776,36.932 L79.048,38.66 C80.992,40.532 83.332,41.216 86.32,41.216 C90.604,41.216 93.52,39.236 93.52,35.816 L93.52,35.816 Z M123.94,41 L123.94,29.66 C123.94,27.608 123.292,25.952 122.032,24.728 C120.952,23.684 119.368,23.072 117.46,23.072 C114.976,23.072 112.996,24.08 111.628,26.024 C110.548,24.08 108.64,23.072 106.192,23.072 C104.212,23.072 102.448,23.792 101.188,25.232 L101.188,23.288 L98.596,23.288 L98.596,41 L101.188,41 L101.188,30.092 C101.188,26.996 102.952,25.376 105.616,25.376 C108.28,25.376 109.972,26.96 109.972,30.092 L109.972,41 L112.564,41 L112.564,29.804 C112.564,26.996 114.4,25.376 116.992,25.376 C119.656,25.376 121.348,26.96 121.348,30.092 L121.348,41 L123.94,41 Z M144.316,32.144 C144.316,29.372 143.956,26.42 142.156,24.62 C141.22,23.684 139.636,23.072 137.836,23.072 C135.892,23.072 134.272,23.504 132.832,25.376 L132.832,23.288 L130.24,23.288 L130.24,48.92 L132.832,48.92 L132.832,38.912 C134.272,40.748 135.892,41.216 137.836,41.216 C139.636,41.216 141.22,40.604 142.156,39.668 C143.956,37.868 144.316,34.916 144.316,32.144 L144.316,32.144 Z M141.724,32.144 C141.724,35.6 141.148,38.912 137.296,38.912 C133.444,38.912 132.832,35.6 132.832,32.144 C132.832,28.688 133.444,25.376 137.296,25.376 C141.148,25.376 141.724,28.688 141.724,32.144 L141.724,32.144 Z M156.16,41 L156.16,38.768 L154.756,38.768 C152.956,38.768 152.38,37.904 152.38,36.176 L152.38,15.368 L149.788,15.368 L149.788,36.284 C149.788,38.984 151.192,41 154.288,41 L156.16,41 Z M173.692,41 L173.692,15.368 L171.1,15.368 L171.1,25.34 C169.66,23.504 168.04,23.072 166.096,23.072 C164.296,23.072 162.712,23.684 161.776,24.62 C159.976,26.42 159.616,29.372 159.616,32.144 C159.616,34.916 159.976,37.868 161.776,39.668 C162.712,40.604 164.296,41.216 166.096,41.216 C168.04,41.216 169.696,40.748 171.136,38.876 L171.136,41 L173.692,41 Z M171.1,32.144 C171.1,35.6 170.524,38.912 166.672,38.912 C162.82,38.912 162.208,35.6 162.208,32.144 C162.208,28.688 162.82,25.376 166.672,25.376 C170.524,25.376 171.1,28.688 171.1,32.144 L171.1,32.144 Z M192.808,41 L192.808,28.976 C192.808,25.124 190.468,23.072 185.716,23.072 C182.836,23.072 181.036,23.648 179.452,25.7 L181.216,27.32 C182.26,25.844 183.412,25.304 185.68,25.304 C188.92,25.304 190.216,26.6 190.216,29.192 L190.216,30.884 L184.888,30.884 C180.928,30.884 178.768,32.9 178.768,35.996 C178.768,37.4 179.236,38.732 180.1,39.596 C181.216,40.748 182.656,41.216 185.104,41.216 C187.48,41.216 188.776,40.748 190.216,39.308 L190.216,41 L192.808,41 Z M190.216,34.736 C190.216,36.212 189.928,37.22 189.316,37.796 C188.2,38.876 186.868,38.984 185.356,38.984 C182.548,38.984 181.288,38.012 181.288,35.96 C181.288,33.908 182.584,32.828 185.248,32.828 L190.216,32.828 L190.216,34.736 Z M205.912,41 L205.912,38.768 L204.544,38.768 C202.888,38.768 202.132,37.796 202.132,36.176 L202.132,25.376 L205.912,25.376 L205.912,23.396 L202.132,23.396 L202.132,17.852 L199.54,17.852 L199.54,23.396 L197.308,23.396 L197.308,25.376 L199.54,25.376 L199.54,36.248 C199.54,38.876 201.052,41 204.076,41 L205.912,41 Z M223.408,41 L223.408,28.976 C223.408,25.124 221.068,23.072 216.316,23.072 C213.436,23.072 211.636,23.648 210.052,25.7 L211.816,27.32 C212.86,25.844 214.012,25.304 216.28,25.304 C219.52,25.304 220.816,26.6 220.816,29.192 L220.816,30.884 L215.488,30.884 C211.528,30.884 209.368,32.9 209.368,35.996 C209.368,37.4 209.836,38.732 210.7,39.596 C211.816,40.748 213.256,41.216 215.704,41.216 C218.08,41.216 219.376,40.748 220.816,39.308 L220.816,41 L223.408,41 Z M220.816,34.736 C220.816,36.212 220.528,37.22 219.916,37.796 C218.8,38.876 217.468,38.984 215.956,38.984 C213.148,38.984 211.888,38.012 211.888,35.96 C211.888,33.908 213.184,32.828 215.848,32.828 L220.816,32.828 L220.816,34.736 Z" id="smpldata" fill="#000000" sketch:type="MSShapeGroup"></path>
            <g id="Rectangle-2-+-Rectangle-4-+-Rectangle-4" transform="translate(0.000000, 5.000000)" sketch:type="MSShapeGroup">
                <path d="M15.955282,0 L47.088963,0 L31.4800121,27 L0.34633111,27 L15.955282,0 Z" id="Rectangle-2" fill="#789AE9"></path>
                <path d="M31.5221225,26.9912945 L47.088963,53.9010888 L15.8559533,53.9097944 L0.289112753,27 L31.5221225,26.9912945 L31.5221225,26.9912945 Z" id="Rectangle-4" fill="#09359B"></path>
                <path d="M31.4935133,26.95925 L47.0603538,0.0494555789 L62.6844127,27.04075 L47.1175722,53.9505444 L31.4935133,26.95925 L31.4935133,26.95925 Z" id="Rectangle-3" fill="#2C61DC"></path>
            </g>
        </g>
    </g>
</svg>